<svg width="128" height="33" viewBox="0 0 128 33" fill="none" xmlns="http://www.w3.org/2000/svg">
<path d="M9.856 10.272C8.064 10.272 6.688 11.36 6.368 13.344H13.216C13.216 11.392 11.68 10.272 9.856 10.272ZM18.4 18.08C17.536 21.568 14.368 24.256 9.92 24.256C4.672 24.256 0.896 20.736 0.896 15.072C0.896 9.408 4.608 5.888 9.92 5.888C15.136 5.888 18.816 9.344 18.816 14.784C18.816 15.296 18.784 15.84 18.72 16.384H6.336C6.528 18.72 7.968 19.808 9.728 19.808C11.264 19.808 12.128 19.04 12.576 18.08H18.4ZM21.3828 15.04V10.496H35.4628V15.04H21.3828ZM54.7613 18.816C54.7613 21.92 52.0093 24.256 47.5293 24.256C42.7613 24.256 39.5613 21.6 39.3053 18.144H44.7133C44.8413 19.392 45.9613 20.224 47.4653 20.224C48.8733 20.224 49.6093 19.584 49.6093 18.784C49.6093 15.904 39.8813 17.984 39.8813 11.424C39.8813 8.384 42.4733 5.888 47.1453 5.888C51.7533 5.888 54.3133 8.448 54.6653 11.968H49.6093C49.4493 10.752 48.5213 9.952 46.9853 9.952C45.7053 9.952 45.0013 10.464 45.0013 11.328C45.0013 14.176 54.6653 12.16 54.7613 18.816ZM58.109 24V0.32H63.581V8.544C64.669 7.008 66.621 5.952 69.085 5.952C73.149 5.952 75.869 8.768 75.869 13.568V24H70.429V14.304C70.429 11.872 69.085 10.528 67.005 10.528C64.925 10.528 63.581 11.872 63.581 14.304V24H58.109ZM97.1435 15.072C97.1435 20.736 93.0475 24.256 87.7995 24.256C82.5515 24.256 78.5835 20.736 78.5835 15.072C78.5835 9.408 82.6475 5.888 87.8635 5.888C93.1115 5.888 97.1435 9.408 97.1435 15.072ZM84.1515 15.072C84.1515 18.08 85.8155 19.52 87.7995 19.52C89.7515 19.52 91.5755 18.08 91.5755 15.072C91.5755 12.032 89.7835 10.624 87.8635 10.624C85.8795 10.624 84.1515 12.032 84.1515 15.072ZM105.519 8.672C106.51 7.104 108.399 5.888 111.023 5.888C115.407 5.888 118.895 9.408 118.895 15.04C118.895 20.672 115.407 24.256 111.023 24.256C108.399 24.256 106.51 23.008 105.519 21.504V32.512H100.047V6.144H105.519V8.672ZM113.327 15.04C113.327 12.192 111.471 10.656 109.391 10.656C107.343 10.656 105.487 12.224 105.487 15.072C105.487 17.92 107.343 19.488 109.391 19.488C111.471 19.488 113.327 17.888 113.327 15.04Z" fill="white"/>
<path d="M127.557 21.312C127.557 22.944 126.245 24.256 124.325 24.256C122.373 24.256 121.061 22.944 121.061 21.312C121.061 19.616 122.373 18.304 124.325 18.304C126.245 18.304 127.557 19.616 127.557 21.312Z" fill="#FF624C"/>
</svg>
